/* XPM */
static char *TNoDave[] = {
/* width height num_colors chars_per_pixel */
"    24    24       16            1",
/* colors */
"` c #000000",
". c #800000",
"# c #008000",
"a c #808000",
"b c #000080",
"c c #800080",
"d c #008080",
"e c #808080",
"f c #c0c0c0",
"g c #ff0000",
"h c #00ff00",
"i c #ffff00",
"j c #0000ff",
"k c #ff00ff",
"l c #00ffff",
"m c #ffffff",
/* pixels */
"ffffffffffffffffffffffff",
"ffffffffffffffffffffffff",
"`f`f`f`f`f`fffffffffffff",
"f`f`f`f`f`f`f`ffffffffff",
"`f`f`fffffffff``ffffffff",
"f`f`f`f`f`ffffffffffffff",
"`f`f`f`f`f`f`fffffffffff",
"``````````````f`ffffffff",
"`````````````````fffffff",
"```````````````````fffff",
"``````````````ff`````fff",
"````````````````ffff```f",
"``````````````````ffff``",
"``````f````````````ffff`",
"```f`f```````````````fff",
"```ffff``````ff`ff````ff",
"f```ffff````fff`fff````f",
"fff```ffffffff`ffffff```",
"ffff```ffffff`fffffff```",
"fffffff`````fffffffff`ff",
"fffffffffff````````fffff",
"fffffffffffffffffff```ff",
"ffffffffffffffffffffff`f",
"ffffffffffffffffffffffff"
};
